<svg height="464pt" viewBox="-48 0 464 464" width="464pt" xmlns="http://www.w3.org/2000/svg"><path d="m32 96 88-64h128l88 64zm0 0" fill="#cfdfe8"/><path d="m304 464h-240l-32-336h304zm0 0" fill="#cfdfe8"/><g fill="#aabece"><path d="m0 96h368v32h-368zm0 0"/><path d="m152 0h64v32h-64zm0 0"/><path d="m59.433594 416 4.566406 48h240l4.566406-48zm0 0"/></g><path d="m184 424c-4.417969 0-8-3.582031-8-8v-176c0-4.417969 3.582031-8 8-8s8 3.582031 8 8v176c0 4.417969-3.582031 8-8 8zm0 0" fill="#5a6470"/><path d="m256 424c-.363281 0-.726562-.023438-1.089844-.070312-4.378906-.597657-7.441406-4.632813-6.847656-9.007813l24-176c.597656-4.378906 4.632812-7.445313 9.007812-6.851563 4.378907.597657 7.445313 4.632813 6.851563 9.007813l-24 176c-.542969 3.964844-3.921875 6.917969-7.921875 6.921875zm0 0" fill="#5a6470"/><path d="m112 424c-4.148438.015625-7.621094-3.140625-8-7.273438l-16-176c-.402344-4.417968 2.855469-8.324218 7.273438-8.726562 4.417968-.402344 8.324218 2.855469 8.726562 7.273438l16 176c.402344 4.386718-2.816406 8.273437-7.199219 8.695312-.320312.03125-.570312.03125-.800781.03125zm0 0" fill="#5a6470"/></svg>